<mxfile host="app.diagrams.net" modified="2024-04-01T14:27:23.620Z" agent="Mozilla/5.0 (Macintosh; Intel Mac OS X 10_15_7) AppleWebKit/537.36 (KHTML, like Gecko) Chrome/123.0.0.0 Safari/537.36" etag="bo3XhTzSKJUNZHQsMTfe" version="24.2.1" type="device">
  <diagram name="ページ1" id="_p8y2ZMvJbF9bzFV4q6h">
    <mxGraphModel dx="734" dy="447" grid="1" gridSize="10" guides="1" tooltips="1" connect="1" arrows="1" fold="1" page="1" pageScale="1" pageWidth="827" pageHeight="1169" math="0" shadow="0">
      <root>
        <mxCell id="0" />
        <mxCell id="1" parent="0" />
        <mxCell id="p1uvAuJWru4tgl7bkKN8-22" value="" style="rounded=0;whiteSpace=wrap;html=1;fillColor=#d5e8d4;strokeColor=none;" parent="1" vertex="1">
          <mxGeometry x="120" y="170" width="450" height="20" as="geometry" />
        </mxCell>
        <mxCell id="69vjoryNmbVRluKTk9mB-15" value="" style="group" vertex="1" connectable="0" parent="1">
          <mxGeometry x="380" y="110" width="70" height="60" as="geometry" />
        </mxCell>
        <mxCell id="69vjoryNmbVRluKTk9mB-16" value="" style="rounded=0;whiteSpace=wrap;html=1;fillColor=#dae8fc;strokeColor=none;" vertex="1" parent="69vjoryNmbVRluKTk9mB-15">
          <mxGeometry x="20" width="50" height="20" as="geometry" />
        </mxCell>
        <mxCell id="69vjoryNmbVRluKTk9mB-17" value="" style="shape=parallelogram;perimeter=parallelogramPerimeter;whiteSpace=wrap;html=1;fixedSize=1;fillColor=#dae8fc;strokeColor=none;" vertex="1" parent="69vjoryNmbVRluKTk9mB-15">
          <mxGeometry width="40" height="60" as="geometry" />
        </mxCell>
        <mxCell id="69vjoryNmbVRluKTk9mB-18" value="" style="group" vertex="1" connectable="0" parent="1">
          <mxGeometry x="320" y="60" width="80" height="110" as="geometry" />
        </mxCell>
        <mxCell id="69vjoryNmbVRluKTk9mB-13" value="" style="rounded=0;whiteSpace=wrap;html=1;fillColor=#dae8fc;strokeColor=none;" vertex="1" parent="69vjoryNmbVRluKTk9mB-18">
          <mxGeometry x="30" width="50" height="20" as="geometry" />
        </mxCell>
        <mxCell id="69vjoryNmbVRluKTk9mB-14" value="" style="shape=parallelogram;perimeter=parallelogramPerimeter;whiteSpace=wrap;html=1;fixedSize=1;fillColor=#dae8fc;strokeColor=none;size=30;" vertex="1" parent="69vjoryNmbVRluKTk9mB-18">
          <mxGeometry width="50" height="110" as="geometry" />
        </mxCell>
        <mxCell id="69vjoryNmbVRluKTk9mB-11" value="" style="group" vertex="1" connectable="0" parent="1">
          <mxGeometry x="270" y="20" width="90" height="150" as="geometry" />
        </mxCell>
        <mxCell id="69vjoryNmbVRluKTk9mB-9" value="" style="rounded=0;whiteSpace=wrap;html=1;fillColor=#dae8fc;strokeColor=none;" vertex="1" parent="69vjoryNmbVRluKTk9mB-11">
          <mxGeometry x="40" width="50" height="20" as="geometry" />
        </mxCell>
        <mxCell id="69vjoryNmbVRluKTk9mB-10" value="" style="shape=parallelogram;perimeter=parallelogramPerimeter;whiteSpace=wrap;html=1;fixedSize=1;fillColor=#dae8fc;strokeColor=none;size=40;" vertex="1" parent="69vjoryNmbVRluKTk9mB-11">
          <mxGeometry width="60" height="150" as="geometry" />
        </mxCell>
        <mxCell id="69vjoryNmbVRluKTk9mB-2" value="" style="group" vertex="1" connectable="0" parent="1">
          <mxGeometry x="170" y="110" width="70" height="60" as="geometry" />
        </mxCell>
        <mxCell id="p1uvAuJWru4tgl7bkKN8-23" value="" style="rounded=0;whiteSpace=wrap;html=1;fillColor=#dae8fc;strokeColor=none;" parent="69vjoryNmbVRluKTk9mB-2" vertex="1">
          <mxGeometry x="20" width="50" height="20" as="geometry" />
        </mxCell>
        <mxCell id="69vjoryNmbVRluKTk9mB-1" value="" style="shape=parallelogram;perimeter=parallelogramPerimeter;whiteSpace=wrap;html=1;fixedSize=1;fillColor=#dae8fc;strokeColor=none;" vertex="1" parent="69vjoryNmbVRluKTk9mB-2">
          <mxGeometry width="40" height="60" as="geometry" />
        </mxCell>
        <mxCell id="69vjoryNmbVRluKTk9mB-6" value="" style="group" vertex="1" connectable="0" parent="1">
          <mxGeometry x="170" y="60" width="90" height="110" as="geometry" />
        </mxCell>
        <mxCell id="69vjoryNmbVRluKTk9mB-4" value="" style="rounded=0;whiteSpace=wrap;html=1;fillColor=#dae8fc;strokeColor=none;" vertex="1" parent="69vjoryNmbVRluKTk9mB-6">
          <mxGeometry x="40" width="50" height="20" as="geometry" />
        </mxCell>
        <mxCell id="69vjoryNmbVRluKTk9mB-5" value="" style="shape=parallelogram;perimeter=parallelogramPerimeter;whiteSpace=wrap;html=1;fixedSize=1;fillColor=#dae8fc;strokeColor=none;size=30;" vertex="1" parent="69vjoryNmbVRluKTk9mB-6">
          <mxGeometry width="50" height="110" as="geometry" />
        </mxCell>
        <mxCell id="p1uvAuJWru4tgl7bkKN8-1" value="" style="ellipse;whiteSpace=wrap;html=1;aspect=fixed;" parent="1" vertex="1">
          <mxGeometry x="170" y="170" width="20" height="20" as="geometry" />
        </mxCell>
        <mxCell id="p1uvAuJWru4tgl7bkKN8-16" style="rounded=0;orthogonalLoop=1;jettySize=auto;html=1;entryX=0.5;entryY=0;entryDx=0;entryDy=0;dashed=1;" parent="1" source="p1uvAuJWru4tgl7bkKN8-3" target="p1uvAuJWru4tgl7bkKN8-6" edge="1">
          <mxGeometry relative="1" as="geometry" />
        </mxCell>
        <mxCell id="p1uvAuJWru4tgl7bkKN8-3" value="" style="ellipse;whiteSpace=wrap;html=1;aspect=fixed;" parent="1" vertex="1">
          <mxGeometry x="210" y="110" width="20" height="20" as="geometry" />
        </mxCell>
        <mxCell id="p1uvAuJWru4tgl7bkKN8-6" value="" style="ellipse;whiteSpace=wrap;html=1;aspect=fixed;" parent="1" vertex="1">
          <mxGeometry x="270" y="170" width="20" height="20" as="geometry" />
        </mxCell>
        <mxCell id="p1uvAuJWru4tgl7bkKN8-7" value="" style="ellipse;whiteSpace=wrap;html=1;aspect=fixed;" parent="1" vertex="1">
          <mxGeometry x="380" y="170" width="20" height="20" as="geometry" />
        </mxCell>
        <mxCell id="p1uvAuJWru4tgl7bkKN8-8" value="" style="ellipse;whiteSpace=wrap;html=1;aspect=fixed;" parent="1" vertex="1">
          <mxGeometry x="480" y="170" width="20" height="20" as="geometry" />
        </mxCell>
        <mxCell id="Q-xTxNDlCBi8yUghtBU0-5" style="rounded=1;orthogonalLoop=1;jettySize=auto;html=1;entryX=0.5;entryY=0;entryDx=0;entryDy=0;dashed=1;" parent="1" source="p1uvAuJWru4tgl7bkKN8-9" target="Q-xTxNDlCBi8yUghtBU0-1" edge="1">
          <mxGeometry relative="1" as="geometry" />
        </mxCell>
        <mxCell id="p1uvAuJWru4tgl7bkKN8-9" value="" style="ellipse;whiteSpace=wrap;html=1;aspect=fixed;" parent="1" vertex="1">
          <mxGeometry x="230" y="60" width="20" height="20" as="geometry" />
        </mxCell>
        <mxCell id="p1uvAuJWru4tgl7bkKN8-12" value="" style="ellipse;whiteSpace=wrap;html=1;aspect=fixed;" parent="1" vertex="1">
          <mxGeometry x="330" y="20" width="20" height="20" as="geometry" />
        </mxCell>
        <mxCell id="Q-xTxNDlCBi8yUghtBU0-14" style="rounded=1;orthogonalLoop=1;jettySize=auto;html=1;entryX=0.5;entryY=0;entryDx=0;entryDy=0;dashed=1;" parent="1" source="p1uvAuJWru4tgl7bkKN8-13" target="p1uvAuJWru4tgl7bkKN8-8" edge="1">
          <mxGeometry relative="1" as="geometry" />
        </mxCell>
        <mxCell id="p1uvAuJWru4tgl7bkKN8-13" value="" style="ellipse;whiteSpace=wrap;html=1;aspect=fixed;" parent="1" vertex="1">
          <mxGeometry x="420" y="110" width="20" height="20" as="geometry" />
        </mxCell>
        <mxCell id="Q-xTxNDlCBi8yUghtBU0-1" value="" style="ellipse;whiteSpace=wrap;html=1;aspect=fixed;" parent="1" vertex="1">
          <mxGeometry x="320" y="170" width="20" height="20" as="geometry" />
        </mxCell>
        <mxCell id="Q-xTxNDlCBi8yUghtBU0-16" style="rounded=1;orthogonalLoop=1;jettySize=auto;html=1;entryX=0.5;entryY=0;entryDx=0;entryDy=0;dashed=1;" parent="1" source="Q-xTxNDlCBi8yUghtBU0-11" target="Q-xTxNDlCBi8yUghtBU0-15" edge="1">
          <mxGeometry relative="1" as="geometry" />
        </mxCell>
        <mxCell id="Q-xTxNDlCBi8yUghtBU0-11" value="" style="ellipse;whiteSpace=wrap;html=1;aspect=fixed;" parent="1" vertex="1">
          <mxGeometry x="370" y="60" width="20" height="20" as="geometry" />
        </mxCell>
        <mxCell id="Q-xTxNDlCBi8yUghtBU0-15" value="" style="ellipse;whiteSpace=wrap;html=1;aspect=fixed;" parent="1" vertex="1">
          <mxGeometry x="530" y="170" width="20" height="20" as="geometry" />
        </mxCell>
        <mxCell id="rtJpqdKrXWml77eh1tYl-16" value="" style="rounded=0;whiteSpace=wrap;html=1;fillColor=#dae8fc;strokeColor=none;" parent="1" vertex="1">
          <mxGeometry y="680" width="560" height="150" as="geometry" />
        </mxCell>
        <mxCell id="rtJpqdKrXWml77eh1tYl-17" value="" style="rounded=0;whiteSpace=wrap;html=1;fillColor=#d5e8d4;strokeColor=none;" parent="1" vertex="1">
          <mxGeometry y="830" width="560" height="60" as="geometry" />
        </mxCell>
        <mxCell id="rtJpqdKrXWml77eh1tYl-18" style="edgeStyle=orthogonalEdgeStyle;rounded=0;orthogonalLoop=1;jettySize=auto;html=1;entryX=0;entryY=0.5;entryDx=0;entryDy=0;" parent="1" source="rtJpqdKrXWml77eh1tYl-21" target="rtJpqdKrXWml77eh1tYl-27" edge="1">
          <mxGeometry relative="1" as="geometry" />
        </mxCell>
        <mxCell id="rtJpqdKrXWml77eh1tYl-19" style="edgeStyle=orthogonalEdgeStyle;rounded=1;orthogonalLoop=1;jettySize=auto;html=1;entryX=0;entryY=0.5;entryDx=0;entryDy=0;curved=0;" parent="1" source="rtJpqdKrXWml77eh1tYl-21" target="rtJpqdKrXWml77eh1tYl-23" edge="1">
          <mxGeometry relative="1" as="geometry" />
        </mxCell>
        <mxCell id="rtJpqdKrXWml77eh1tYl-20" style="edgeStyle=orthogonalEdgeStyle;rounded=1;orthogonalLoop=1;jettySize=auto;html=1;entryX=0;entryY=0.5;entryDx=0;entryDy=0;curved=0;" parent="1" source="rtJpqdKrXWml77eh1tYl-21" target="rtJpqdKrXWml77eh1tYl-33" edge="1">
          <mxGeometry relative="1" as="geometry" />
        </mxCell>
        <mxCell id="rtJpqdKrXWml77eh1tYl-21" value="" style="ellipse;whiteSpace=wrap;html=1;aspect=fixed;" parent="1" vertex="1">
          <mxGeometry x="140" y="850" width="20" height="20" as="geometry" />
        </mxCell>
        <mxCell id="rtJpqdKrXWml77eh1tYl-22" style="edgeStyle=orthogonalEdgeStyle;rounded=1;orthogonalLoop=1;jettySize=auto;html=1;entryX=0;entryY=0.5;entryDx=0;entryDy=0;curved=0;" parent="1" source="rtJpqdKrXWml77eh1tYl-23" target="rtJpqdKrXWml77eh1tYl-27" edge="1">
          <mxGeometry relative="1" as="geometry" />
        </mxCell>
        <mxCell id="rtJpqdKrXWml77eh1tYl-23" value="" style="ellipse;whiteSpace=wrap;html=1;aspect=fixed;" parent="1" vertex="1">
          <mxGeometry x="200" y="790" width="20" height="20" as="geometry" />
        </mxCell>
        <mxCell id="rtJpqdKrXWml77eh1tYl-24" style="edgeStyle=orthogonalEdgeStyle;rounded=1;orthogonalLoop=1;jettySize=auto;html=1;entryX=0;entryY=0.5;entryDx=0;entryDy=0;curved=0;" parent="1" source="rtJpqdKrXWml77eh1tYl-27" target="rtJpqdKrXWml77eh1tYl-35" edge="1">
          <mxGeometry relative="1" as="geometry" />
        </mxCell>
        <mxCell id="rtJpqdKrXWml77eh1tYl-25" style="edgeStyle=orthogonalEdgeStyle;rounded=0;orthogonalLoop=1;jettySize=auto;html=1;entryX=0;entryY=0.5;entryDx=0;entryDy=0;" parent="1" source="rtJpqdKrXWml77eh1tYl-27" target="rtJpqdKrXWml77eh1tYl-46" edge="1">
          <mxGeometry relative="1" as="geometry" />
        </mxCell>
        <mxCell id="rtJpqdKrXWml77eh1tYl-26" style="edgeStyle=orthogonalEdgeStyle;rounded=1;orthogonalLoop=1;jettySize=auto;html=1;entryX=0;entryY=0.5;entryDx=0;entryDy=0;curved=0;" parent="1" source="rtJpqdKrXWml77eh1tYl-27" target="rtJpqdKrXWml77eh1tYl-48" edge="1">
          <mxGeometry relative="1" as="geometry" />
        </mxCell>
        <mxCell id="rtJpqdKrXWml77eh1tYl-27" value="" style="ellipse;whiteSpace=wrap;html=1;aspect=fixed;" parent="1" vertex="1">
          <mxGeometry x="260" y="850" width="20" height="20" as="geometry" />
        </mxCell>
        <mxCell id="rtJpqdKrXWml77eh1tYl-28" style="edgeStyle=orthogonalEdgeStyle;rounded=0;orthogonalLoop=1;jettySize=auto;html=1;" parent="1" source="rtJpqdKrXWml77eh1tYl-29" target="rtJpqdKrXWml77eh1tYl-31" edge="1">
          <mxGeometry relative="1" as="geometry" />
        </mxCell>
        <mxCell id="rtJpqdKrXWml77eh1tYl-29" value="" style="ellipse;whiteSpace=wrap;html=1;aspect=fixed;" parent="1" vertex="1">
          <mxGeometry x="400" y="850" width="20" height="20" as="geometry" />
        </mxCell>
        <mxCell id="rtJpqdKrXWml77eh1tYl-30" style="edgeStyle=orthogonalEdgeStyle;rounded=0;orthogonalLoop=1;jettySize=auto;html=1;" parent="1" source="rtJpqdKrXWml77eh1tYl-31" target="rtJpqdKrXWml77eh1tYl-49" edge="1">
          <mxGeometry relative="1" as="geometry" />
        </mxCell>
        <mxCell id="rtJpqdKrXWml77eh1tYl-31" value="" style="ellipse;whiteSpace=wrap;html=1;aspect=fixed;" parent="1" vertex="1">
          <mxGeometry x="470" y="850" width="20" height="20" as="geometry" />
        </mxCell>
        <mxCell id="rtJpqdKrXWml77eh1tYl-32" style="edgeStyle=orthogonalEdgeStyle;rounded=1;orthogonalLoop=1;jettySize=auto;html=1;entryX=0;entryY=0.5;entryDx=0;entryDy=0;curved=0;" parent="1" source="rtJpqdKrXWml77eh1tYl-33" target="rtJpqdKrXWml77eh1tYl-46" edge="1">
          <mxGeometry relative="1" as="geometry">
            <Array as="points">
              <mxPoint x="290" y="750" />
              <mxPoint x="290" y="860" />
            </Array>
          </mxGeometry>
        </mxCell>
        <mxCell id="rtJpqdKrXWml77eh1tYl-33" value="" style="ellipse;whiteSpace=wrap;html=1;aspect=fixed;" parent="1" vertex="1">
          <mxGeometry x="220" y="740" width="20" height="20" as="geometry" />
        </mxCell>
        <mxCell id="rtJpqdKrXWml77eh1tYl-34" style="edgeStyle=orthogonalEdgeStyle;rounded=1;orthogonalLoop=1;jettySize=auto;html=1;entryX=0;entryY=0.5;entryDx=0;entryDy=0;curved=0;" parent="1" source="rtJpqdKrXWml77eh1tYl-35" target="rtJpqdKrXWml77eh1tYl-29" edge="1">
          <mxGeometry relative="1" as="geometry" />
        </mxCell>
        <mxCell id="rtJpqdKrXWml77eh1tYl-35" value="" style="ellipse;whiteSpace=wrap;html=1;aspect=fixed;" parent="1" vertex="1">
          <mxGeometry x="320" y="700" width="20" height="20" as="geometry" />
        </mxCell>
        <mxCell id="rtJpqdKrXWml77eh1tYl-36" style="edgeStyle=orthogonalEdgeStyle;rounded=1;orthogonalLoop=1;jettySize=auto;html=1;entryX=0;entryY=0.5;entryDx=0;entryDy=0;curved=0;" parent="1" source="rtJpqdKrXWml77eh1tYl-37" target="rtJpqdKrXWml77eh1tYl-31" edge="1">
          <mxGeometry relative="1" as="geometry" />
        </mxCell>
        <mxCell id="rtJpqdKrXWml77eh1tYl-37" value="" style="ellipse;whiteSpace=wrap;html=1;aspect=fixed;" parent="1" vertex="1">
          <mxGeometry x="410" y="790" width="20" height="20" as="geometry" />
        </mxCell>
        <mxCell id="rtJpqdKrXWml77eh1tYl-44" style="edgeStyle=orthogonalEdgeStyle;rounded=1;orthogonalLoop=1;jettySize=auto;html=1;entryX=0;entryY=0.5;entryDx=0;entryDy=0;curved=0;" parent="1" source="rtJpqdKrXWml77eh1tYl-46" target="rtJpqdKrXWml77eh1tYl-37" edge="1">
          <mxGeometry relative="1" as="geometry">
            <Array as="points">
              <mxPoint x="380" y="860" />
              <mxPoint x="380" y="800" />
            </Array>
          </mxGeometry>
        </mxCell>
        <mxCell id="rtJpqdKrXWml77eh1tYl-45" style="edgeStyle=orthogonalEdgeStyle;rounded=0;orthogonalLoop=1;jettySize=auto;html=1;entryX=0;entryY=0.5;entryDx=0;entryDy=0;" parent="1" source="rtJpqdKrXWml77eh1tYl-46" target="rtJpqdKrXWml77eh1tYl-29" edge="1">
          <mxGeometry relative="1" as="geometry" />
        </mxCell>
        <mxCell id="rtJpqdKrXWml77eh1tYl-46" value="" style="ellipse;whiteSpace=wrap;html=1;aspect=fixed;" parent="1" vertex="1">
          <mxGeometry x="320" y="850" width="20" height="20" as="geometry" />
        </mxCell>
        <mxCell id="rtJpqdKrXWml77eh1tYl-47" style="edgeStyle=orthogonalEdgeStyle;rounded=1;orthogonalLoop=1;jettySize=auto;html=1;entryX=0;entryY=0.5;entryDx=0;entryDy=0;curved=0;" parent="1" source="rtJpqdKrXWml77eh1tYl-48" target="rtJpqdKrXWml77eh1tYl-49" edge="1">
          <mxGeometry relative="1" as="geometry">
            <Array as="points">
              <mxPoint x="500" y="750" />
              <mxPoint x="500" y="860" />
            </Array>
          </mxGeometry>
        </mxCell>
        <mxCell id="rtJpqdKrXWml77eh1tYl-48" value="" style="ellipse;whiteSpace=wrap;html=1;aspect=fixed;" parent="1" vertex="1">
          <mxGeometry x="340" y="740" width="20" height="20" as="geometry" />
        </mxCell>
        <mxCell id="rtJpqdKrXWml77eh1tYl-49" value="" style="ellipse;whiteSpace=wrap;html=1;aspect=fixed;" parent="1" vertex="1">
          <mxGeometry x="520" y="850" width="20" height="20" as="geometry" />
        </mxCell>
        <mxCell id="rtJpqdKrXWml77eh1tYl-39" value="開発用ブランチ" style="text;html=1;strokeColor=none;fillColor=none;align=center;verticalAlign=middle;whiteSpace=wrap;rounded=0;" parent="1" vertex="1">
          <mxGeometry x="19.5" y="750" width="101" height="20" as="geometry" />
        </mxCell>
        <mxCell id="rtJpqdKrXWml77eh1tYl-42" value="メインブランチ" style="text;html=1;strokeColor=none;fillColor=none;align=center;verticalAlign=middle;whiteSpace=wrap;rounded=0;" parent="1" vertex="1">
          <mxGeometry x="14.5" y="848.75" width="111" height="22.5" as="geometry" />
        </mxCell>
        <mxCell id="rtJpqdKrXWml77eh1tYl-50" value="" style="rounded=0;whiteSpace=wrap;html=1;fillColor=#d5e8d4;strokeColor=none;" parent="1" vertex="1">
          <mxGeometry x="120" y="280" width="450" height="20" as="geometry" />
        </mxCell>
        <mxCell id="rtJpqdKrXWml77eh1tYl-52" value="" style="ellipse;whiteSpace=wrap;html=1;aspect=fixed;" parent="1" vertex="1">
          <mxGeometry x="170" y="280" width="20" height="20" as="geometry" />
        </mxCell>
        <mxCell id="rtJpqdKrXWml77eh1tYl-54" value="" style="ellipse;whiteSpace=wrap;html=1;aspect=fixed;" parent="1" vertex="1">
          <mxGeometry x="270" y="280" width="20" height="20" as="geometry" />
        </mxCell>
        <mxCell id="rtJpqdKrXWml77eh1tYl-56" value="" style="ellipse;whiteSpace=wrap;html=1;aspect=fixed;" parent="1" vertex="1">
          <mxGeometry x="380" y="280" width="20" height="20" as="geometry" />
        </mxCell>
        <mxCell id="rtJpqdKrXWml77eh1tYl-58" value="" style="ellipse;whiteSpace=wrap;html=1;aspect=fixed;" parent="1" vertex="1">
          <mxGeometry x="480" y="280" width="20" height="20" as="geometry" />
        </mxCell>
        <mxCell id="rtJpqdKrXWml77eh1tYl-60" value="" style="ellipse;whiteSpace=wrap;html=1;aspect=fixed;" parent="1" vertex="1">
          <mxGeometry x="320" y="280" width="20" height="20" as="geometry" />
        </mxCell>
        <mxCell id="rtJpqdKrXWml77eh1tYl-61" value="" style="ellipse;whiteSpace=wrap;html=1;aspect=fixed;" parent="1" vertex="1">
          <mxGeometry x="530" y="280" width="20" height="20" as="geometry" />
        </mxCell>
        <mxCell id="rtJpqdKrXWml77eh1tYl-62" value="トランクブランチ" style="text;html=1;strokeColor=none;fillColor=none;align=center;verticalAlign=middle;whiteSpace=wrap;rounded=0;" parent="1" vertex="1">
          <mxGeometry y="278.75" width="111" height="22.5" as="geometry" />
        </mxCell>
        <mxCell id="rtJpqdKrXWml77eh1tYl-63" value="" style="shape=flexArrow;endArrow=classic;html=1;rounded=0;exitX=0.5;exitY=1;exitDx=0;exitDy=0;" parent="1" source="p1uvAuJWru4tgl7bkKN8-22" target="rtJpqdKrXWml77eh1tYl-50" edge="1">
          <mxGeometry width="50" height="50" relative="1" as="geometry">
            <mxPoint x="330" y="561.25" as="sourcePoint" />
            <mxPoint x="380" y="511.25" as="targetPoint" />
          </mxGeometry>
        </mxCell>
        <mxCell id="rtJpqdKrXWml77eh1tYl-64" value="結果的に以下になる" style="text;html=1;align=center;verticalAlign=middle;whiteSpace=wrap;rounded=0;" parent="1" vertex="1">
          <mxGeometry x="350" y="220" width="130" height="30" as="geometry" />
        </mxCell>
        <mxCell id="iZEOYsHipm2wcMLX6cP3-2" value="トランクブランチ" style="text;html=1;strokeColor=none;fillColor=none;align=center;verticalAlign=middle;whiteSpace=wrap;rounded=0;" parent="1" vertex="1">
          <mxGeometry y="168.75" width="111" height="22.5" as="geometry" />
        </mxCell>
        <mxCell id="iZEOYsHipm2wcMLX6cP3-3" value="PRを&lt;div&gt;Squashマージ&lt;/div&gt;" style="text;html=1;align=center;verticalAlign=middle;whiteSpace=wrap;rounded=0;" parent="1" vertex="1">
          <mxGeometry x="475.5" y="100" width="94.5" height="40" as="geometry" />
        </mxCell>
        <mxCell id="Q-xTxNDlCBi8yUghtBU0-8" style="rounded=1;orthogonalLoop=1;jettySize=auto;html=1;entryX=0.5;entryY=0;entryDx=0;entryDy=0;dashed=1;" parent="1" source="p1uvAuJWru4tgl7bkKN8-12" target="p1uvAuJWru4tgl7bkKN8-7" edge="1">
          <mxGeometry relative="1" as="geometry" />
        </mxCell>
        <mxCell id="69vjoryNmbVRluKTk9mB-20" value="" style="endArrow=none;html=1;rounded=0;dashed=1;" edge="1" parent="1">
          <mxGeometry width="50" height="50" relative="1" as="geometry">
            <mxPoint x="130" y="179.81" as="sourcePoint" />
            <mxPoint x="160" y="179.81" as="targetPoint" />
          </mxGeometry>
        </mxCell>
        <mxCell id="69vjoryNmbVRluKTk9mB-21" value="" style="endArrow=none;html=1;rounded=0;dashed=1;" edge="1" parent="1">
          <mxGeometry width="50" height="50" relative="1" as="geometry">
            <mxPoint x="130" y="289.81" as="sourcePoint" />
            <mxPoint x="160" y="289.81" as="targetPoint" />
          </mxGeometry>
        </mxCell>
      </root>
    </mxGraphModel>
  </diagram>
</mxfile>
